<svg width="69" height="70" viewBox="0 0 69 70" fill="none" xmlns="http://www.w3.org/2000/svg">
<g clip-path="url(#clip0)">
<path d="M32.2275 32.7351H34.4819V43.2296H32.2275V32.7351Z" fill="#2196F3"/>
<path d="M41.2451 37.3993H43.4995V43.2296H41.2451V37.3993Z" fill="#2196F3"/>
<path d="M23.2104 40.8975H25.4648V43.2296H23.2104V40.8975Z" fill="#2196F3"/>
<path d="M16.4473 39.7314H18.7016V43.2295H16.4473V39.7314Z" fill="#2196F3"/>
<path d="M4.04807 61.8865H58.1531C60.0205 61.8865 61.5346 60.3202 61.5346 58.3883V53.7241C61.5346 51.7923 60.0205 50.2259 58.1531 50.2259H57.0259V21.1468L63.4285 14.8725C64.9145 15.6303 66.7132 15.1702 67.6857 13.7816C68.6588 12.3934 68.5223 10.4821 67.3632 9.25682C66.2041 8.03155 64.3603 7.84879 62.997 8.8241C61.6342 9.79999 61.1499 11.6499 61.85 13.2036L57.0259 17.9345V15.2442C57.0259 13.3124 55.5118 11.7461 53.6443 11.7461H8.55682C6.68936 11.7461 5.17525 13.3124 5.17525 15.2442V50.2259H4.04807C2.18061 50.2259 0.666504 51.7923 0.666504 53.7241V58.3883C0.666504 60.3202 2.18061 61.8865 4.04807 61.8865ZM64.9162 10.58C65.5387 10.58 66.0434 11.1021 66.0434 11.7461C66.0434 12.39 65.5387 12.9121 64.9162 12.9121C64.2937 12.9121 63.789 12.39 63.789 11.7461C63.789 11.1021 64.2937 10.58 64.9162 10.58ZM7.42963 15.2442C7.42963 14.6003 7.93433 14.0782 8.55682 14.0782H53.6443C54.2668 14.0782 54.7715 14.6003 54.7715 15.2442V20.1413L52.5171 22.3573V17.5764C52.5171 16.9324 52.0124 16.4103 51.3899 16.4103H10.8112C10.1887 16.4103 9.684 16.9324 9.684 17.5764V46.7278C9.684 47.3717 10.1887 47.8938 10.8112 47.8938H51.3899C52.0124 47.8938 52.5171 47.3717 52.5171 46.7278V25.5651L54.7715 23.3554V50.2259H7.42963V15.2442ZM17.5743 30.403C16.0492 30.3984 14.7101 31.4495 14.3045 32.9702C13.8988 34.491 14.5268 36.104 15.8384 36.9091C17.1494 37.7142 18.8198 37.5121 19.9157 36.4149L23.8338 38.4487C24.289 38.6844 24.841 38.5739 25.1795 38.1805L33.5085 28.4871L41.696 34.8338C42.1352 35.1742 42.7484 35.1378 43.1468 34.7478L50.2628 27.7748V45.5617H11.9384V18.7424H50.2628V24.5619L42.2877 32.3747L34.0314 25.9716C33.5624 25.6084 32.9025 25.6767 32.5129 26.1293L24.0694 35.9571L20.9129 34.3242C20.9361 34.1841 20.9504 34.0429 20.9559 33.9011C20.9559 31.9693 19.4418 30.403 17.5743 30.403ZM18.7015 33.9011C18.7015 34.5451 18.1968 35.0672 17.5743 35.0672C16.9518 35.0672 16.4471 34.5451 16.4471 33.9011C16.4471 33.2572 16.9518 32.7351 17.5743 32.7351C18.1968 32.7351 18.7015 33.2572 18.7015 33.9011ZM25.4646 52.558H36.7365V53.7241C36.7365 54.3681 36.2318 54.8902 35.6093 54.8902H26.5918C25.9693 54.8902 25.4646 54.3681 25.4646 53.7241V52.558ZM2.92088 53.7241C2.92088 53.0802 3.42558 52.558 4.04807 52.558H23.2103V53.7241C23.2103 55.656 24.7244 57.2223 26.5918 57.2223H35.6093C37.4768 57.2223 38.9909 55.656 38.9909 53.7241V52.558H58.1531C58.7756 52.558 59.2803 53.0802 59.2803 53.7241V58.3883C59.2803 59.0323 58.7756 59.5544 58.1531 59.5544H4.04807C3.42558 59.5544 2.92088 59.0323 2.92088 58.3883V53.7241Z" fill="#212121"/>
</g>
<defs>
<clipPath id="clip0">
<rect width="67.6667" height="70" fill="white" transform="translate(0.666504)"/>
</clipPath>
</defs>
</svg>
